<?xml version="1.0" encoding="utf-8"?>
<!-- Generator: Adobe Illustrator 23.0.2, SVG Export Plug-In . SVG Version: 6.00 Build 0)  -->
<svg version="1.1" id="Слой_1" xmlns="http://www.w3.org/2000/svg" xmlns:xlink="http://www.w3.org/1999/xlink" x="0px" y="0px"
	 viewBox="0 0 512 512" style="enable-background:new 0 0 512 512;" xml:space="preserve">
<style type="text/css">
	.st0{fill:#B9953C;}
</style>
<path class="st0" d="M270.2,366.8h-28.5c-4.2,0-7.6,3.4-7.6,7.6c0,4.2,3.4,7.6,7.6,7.6h28.5c4.2,0,7.6-3.4,7.6-7.6
	C277.8,370.2,274.4,366.8,270.2,366.8z"/>
<path class="st0" d="M213.4,171.4c4.2,0,7.6-3.4,7.6-7.6v-10.3c0-4.2-3.4-7.6-7.6-7.6s-7.6,3.4-7.6,7.6v10.3
	C205.9,168,209.3,171.4,213.4,171.4z"/>
<path class="st0" d="M299.8,171.4c4.2,0,7.6-3.4,7.6-7.6v-10.3c0-4.2-3.4-7.6-7.6-7.6c-4.2,0-7.6,3.4-7.6,7.6v10.3
	C292.2,168,295.6,171.4,299.8,171.4z"/>
<path class="st0" d="M487.2,405.6C487.2,405.6,487.2,405.6,487.2,405.6c-0.1-0.1-0.1-0.2-0.1-0.2l-33.9-63.5
	c-19.3-36.1-36.4-61.8-80.9-64.2c0,0-0.1,0-0.1,0l-6.4-0.2c-19.1-0.6-33-14.8-36.8-19.1c-1-1.2-2.4-2.6-3.8-4.1
	c22-18.4,39-43.3,45.8-67.8c7.1-1.4,14.2-5.3,20-11c7.1-7,11.1-15.8,11.1-24.1v-11c0-10.3-8.4-18.7-18.7-18.7h-9.2v-17.3
	c0-35.5-15.7-65.4-44.3-84.1c-35.7-23.4-87.7-26.9-129.3-8.8c-39.9,17.4-62.8,51.2-62.8,92.9v17.3h-9.2c-10.3,0-18.7,8.4-18.7,18.7
	v11c0,8.3,4.1,17.1,11.1,24.1c5.8,5.7,12.9,9.6,20,11c6.8,24.6,23.8,49.4,45.8,67.8c-1.4,1.4-2.8,2.9-3.8,4.1
	c-3.8,4.3-17.7,18.5-36.8,19.1l-6.4,0.2c0,0-0.1,0-0.1,0c-36.2,1.9-54,19.1-69.6,44.4c-2.2,3.6-1.1,8.2,2.5,10.4
	c1.2,0.8,2.6,1.1,4,1.1c2.5,0,5-1.3,6.4-3.6c13.8-22.4,27.7-35.7,57.5-37.3l6.3-0.2c4.9-0.2,9.4-0.9,13.7-2.1
	c8.5,11.8,21.5,21.4,37.7,28c16.6,6.7,36.2,10.3,56.7,10.3h0.2c42.3,0,79.3-14.9,96.6-38.3c4.3,1.2,8.8,2,13.7,2.1l6.3,0.2
	c35.5,1.9,48.6,19.4,68.3,56.2l24.2,45.4c-17.1-4.2-36.1-2.9-59.2,2L392,363.9c-1.5-3.9-5.9-5.8-9.8-4.2c-3.9,1.5-5.8,5.9-4.2,9.8
	l12,30.4c-3.2,0.8-6.4,1.7-9.7,2.6c-4.2-6.5-12.7-10.8-22.8-10.8H353v-10.2c0-12.3-10.1-22.3-22.5-22.3h-29.9l-2.1-6
	c-3.1-9.2-9.2-10.5-12.6-10.5l-60.7,0.1c-7.8,0-10.8,6.5-12.3,9.7l-3.2,6.8h-29.1c-12.4,0-22.5,10-22.5,22.4v10.1h-3.7
	c-10.1,0-18.6,4.4-22.8,10.8c-3.3-0.9-6.6-1.8-9.7-2.6l12-30.4c1.5-3.9-0.4-8.3-4.2-9.8c-3.9-1.5-8.3,0.4-9.8,4.2l-12.9,32.5
	c-23.1-5-42.1-6.3-59.2-2l18.1-34c2-3.7,0.6-8.3-3.1-10.2c-3.7-2-8.3-0.6-10.2,3.1l-27.8,52.1c0,0,0,0.1-0.1,0.1c0,0,0,0.1,0,0.1
	c-9.2,17.3-10.3,32.1-3.2,43.8c11.1,18.4,41.1,27.4,92,27.4h19.3c4.5,5.6,12.4,9.2,21.6,9.2h3.7v3.6c0,12.3,10.1,22.4,22.5,22.4
	h60.1c4.2,0,7.6-3.4,7.6-7.6c0-4.2-3.4-7.6-7.6-7.6h-60.1c-4,0-7.3-3.3-7.3-7.2V486c13-0.7,23.3-9.1,23.8-19.6l0.4-8.6h21.9
	c7.9,11.5,21.2,19,36.2,19s28.3-7.5,36.2-19h22.7l0.4,8.6c0.5,10.3,10.4,18.6,22.9,19.6v3.6c0,4-3.3,7.2-7.4,7.2H274
	c-4.2,0-7.6,3.4-7.6,7.6c0,4.2,3.4,7.6,7.6,7.6h56.6c12.4,0,22.5-10.1,22.5-22.4v-3.5h4.5c9.2,0,17.1-3.6,21.6-9.2h19.3
	c50.9,0,80.9-9,92-27.4C497.5,437.7,496.4,422.9,487.2,405.6z M374.2,164v-27.2h9.2c2,0,3.6,1.6,3.6,3.6v11c0,4.3-2.5,9.3-6.6,13.4
	c-1.9,1.9-4.1,3.5-6.4,4.7C374.1,167.6,374.2,165.8,374.2,164z M131.6,164.7c-4.2-4.1-6.6-9.1-6.6-13.4v-11c0-1.9,1.7-3.6,3.6-3.6
	h9.2V164c0,1.8,0.1,3.6,0.2,5.4C135.8,168.2,133.6,166.6,131.6,164.7z M206.6,25.4c37.2-16.2,83.4-13.1,115,7.6
	c16.3,10.7,35.6,30.7,37.3,66.2c-67.8,24.6-95.9,14-123.1,3.8c-15.3-5.8-31-11.6-52.6-11.6c-8.9,0-18.7,1-30,3.4
	C157.5,53,188,33.5,206.6,25.4z M154.5,177.9C154.5,177.9,154.5,177.9,154.5,177.9c-1-4.7-1.6-9.4-1.6-13.9v-53.7
	c36.6-8.6,56.6-1.1,77.7,6.8c16.4,6.2,33,12.4,56.8,12.4c18.5,0,41.3-3.8,71.6-14.3V164c0,37.4-36.4,83.7-78,99
	c-18.5,6.8-31.6,6.9-50,0.1C194.5,249.6,161.8,212.2,154.5,177.9z M255,313.6c-0.1,0-0.1,0-0.2,0c-35.1,0-64.8-11-80-29.3
	c9.4-5.4,16.2-12.2,19.6-16c1.1-1.3,2.9-3.1,4.6-4.9c8.5,5.7,17.5,10.5,26.8,13.9c10.9,4,20.5,6,30.2,6c9.7,0,19.4-2,30.3-6.1
	c9.2-3.4,18.2-8.1,26.7-13.8c1.7,1.7,3.5,3.6,4.6,4.9c3.4,3.9,10.1,10.6,19.5,16C321.8,302,290.2,313.6,255,313.6z M129,461.7h-15.4
	c-55.4,0-73.6-10.9-79-20c-3.9-6.6-3-15.7,2.7-27.2c17.8-9.4,37.4-10.2,72.5-2c0.2,0.1,0.4,0.1,0.6,0.1c5.7,1.4,11.9,2.9,18.5,4.8
	V461.7z M182.8,449.4c0,0.3,0,0.5,0,0.8c0,0,0,0,0,0.1l-0.8,15.3c-0.1,2.2-4.2,5.3-10.5,5.3h-17c-5.6,0-9.4-2.5-10.3-4.2
	c-0.1-0.1-0.1-0.3-0.2-0.4c0-0.1,0-0.2,0-0.3v-54.3c0-1.7,4.1-4.9,10.5-4.9h19.7c4.6,0,8.2,1.7,9.8,3.3c0.4,0.5,0.7,0.9,0.7,1.2
	L182.8,449.4z M198.3,442.7l0.9-18.8h13.6c-0.7,3-1,6.1-1,9.4c0,3.2,0.4,6.4,1,9.4H198.3z M255.6,461.7c-15.8,0-28.7-12.7-28.7-28.4
	c0-4.8,1.2-9.3,3.3-13.3c0-0.1,0.1-0.1,0.1-0.2c4.9-8.9,14.4-14.9,25.3-14.9s20.4,6,25.3,14.9c0,0.1,0.1,0.1,0.1,0.2
	c2.1,4,3.3,8.5,3.3,13.3C284.3,449,271.4,461.7,255.6,461.7z M298.3,442.7c0.7-3,1-6.2,1-9.4c0-3.2-0.4-6.3-1-9.4h14.4l0.9,18.8
	H298.3z M317,399.7c-2.5,2.7-4.1,5.8-4.7,9.2h-20.6c-7.9-11.5-21.2-19-36.2-19s-28.3,7.5-36.2,19h-19.8c-0.5-3.3-2.1-6.5-4.7-9.2
	c-4.8-5-12.5-8-20.7-8h-1v-10.1c0-3.9,3.4-7.2,7.3-7.2h33.9c2.9,0,5.6-1.7,6.8-4.3l5.3-11.2c0.1-0.3,0.3-0.6,0.4-0.9l57-0.1
	c0,0.1,0.1,0.2,0.1,0.3l3.8,11.1c1.1,3,3.9,5.1,7.1,5.1h35.3c4,0,7.4,3.3,7.4,7.2v10.2h-0.1C329.6,391.7,321.8,394.7,317,399.7z
	 M367.9,466c0,0.1,0,0.2,0,0.3c-0.1,0.1-0.1,0.3-0.2,0.4c-0.9,1.8-4.7,4.2-10.3,4.2h-17c-6.2,0-10.4-3.1-10.5-5.3l-2.7-54.3
	c0-0.3,0.3-0.8,0.7-1.2c1.6-1.6,5.2-3.3,9.7-3.3h19.7c6.4,0,10.5,3.2,10.5,4.9V466z M477.5,441.7c-5.5,9.1-23.6,20-79,20H383v-44.3
	c6.6-1.8,12.8-3.4,18.5-4.8c0.2,0,0.5-0.1,0.7-0.2c35.1-8.2,54.7-7.4,72.5,2C480.5,426,481.4,435.1,477.5,441.7z"/>
</svg>
