<?xml version="1.0" encoding="utf-8"?>
<!-- Generator: Adobe Illustrator 23.0.2, SVG Export Plug-In . SVG Version: 6.00 Build 0)  -->
<svg version="1.1" id="Слой_1" xmlns="http://www.w3.org/2000/svg" xmlns:xlink="http://www.w3.org/1999/xlink" x="0px" y="0px"
	 viewBox="0 0 259.5 82.4" style="enable-background:new 0 0 259.5 82.4;" xml:space="preserve">
<style type="text/css">
	.st0{fill:#9EBC25;}
	.st1{fill:#FFBE1D;}
	.st2{fill:#7ACFF0;}
	.st3{fill:#F57A37;}
	.st4{fill:#FFFFFF;stroke:#FFFFFF;stroke-miterlimit:10;}
	.st5{fill:#FFFFFF;stroke:#9EBC25;stroke-miterlimit:10;}
</style>
<polygon class="st0" points="88,2.7 88,36.7 107,36.7 107,32.7 95.5,33.2 95.5,3.2 "/>
<path class="st0" d="M113.5,3.2l1,25c0,0,1,9,15,9c0,0,11,1,13-9c0,0,1-8,1-25h-5c0,0,2,9,0,26c0,0,0,5-10,5c0,0-6,0-7-5v-26H113.5z
	"/>
<path class="st0" d="M181.5,4.2c0,0-14-6-24,2c0,0-7,4-6,14c0,0-1,15,16,17c0,0,5,1,13-2l1-5c0,0-5,6-15,3c0,0-11-5-6-22
	c0,0,3-6,10-6c0,0,7-1,9,5h1L181.5,4.2z"/>
<polygon class="st0" points="191.5,3.2 192.5,37.2 200.5,37.2 199.5,22.2 210.5,37.2 219.5,37.2 205.5,17.2 218.5,3.2 212.5,3.2 
	200.5,17.2 199.5,3.2 "/>
<polygon class="st0" points="229.5,3.2 238.5,3.2 245.5,17.2 253.5,3.2 258.5,3.2 248.5,20.2 248.5,37.2 239.5,37.2 240.5,22.2 "/>
<polygon class="st0" points="85.5,45.2 112.5,45.2 112.5,50.2 102.5,50.2 102.5,79.2 95.5,79.2 95.5,49.2 85.5,49.2 "/>
<path class="st0" d="M119.5,45.2h16c0,0,8,1,8,9s-9,8-9,8l11,17h-9l-10-16l1,16h-8V45.2z"/>
<polygon class="st0" points="149.5,79.2 163.5,45.2 166.5,45.2 180.5,79.2 172.5,79.2 168.5,69.2 157.5,69.2 153.5,79.2 "/>
<polygon class="st0" points="177.5,46.2 190.5,79.2 194.5,79.2 208.5,46.2 203.5,46.2 194.5,70.2 185.5,46.2 "/>
<polygon class="st0" points="231.5,50.2 231.5,45.2 212.5,46.2 212.5,79.2 231.5,79.2 231.5,75.2 220.5,75.2 220.5,63.2 231.5,63.2 
	231.5,59.2 220.5,59.2 220.5,49.2 "/>
<polygon class="st0" points="240.5,46.2 240.5,79.2 259.5,79.2 259.5,75.2 248.5,76.2 247.5,45.2 "/>
<path class="st0" d="M10,57.7c-1.2-0.2-3.7-1-6-3c-1.9-1.7-2.8-3.5-3-4c-0.2-0.4-2.2-5.1,0-10c0.6-1.4,1.4-2.4,2-3
	c-0.6-0.6-1.4-1.6-2-3c-1.6-3.7-0.3-7.2,0-8c0.2-0.5,1.3-3.1,4-5c2.2-1.5,4.2-1.9,5-2c1.4-0.2,5.1-0.5,11,3c8.3,4.9,13.5,12.8,16,17
	c0,0.3,0,0.7,0,1c-1,0.1-2.4,0.2-4,0c-0.8-0.1-1.9-0.4-4-1c-2.1-0.6-2.7-0.8-4-1c-1.3-0.2-2.1-0.2-3,0c-1.1,0.3-2.1,0.8-2,1
	c0.1,0.2,1.3-0.2,3,0c1.2,0.2,1.6,0.5,3,1c0.4,0.2,2.1,0.7,4,1c1.7,0.2,3.2,0.2,6,0c1.6-0.1,1.9-0.2,2,0c0.3,0.7-5,3.5-12,8
	C16.4,55.8,14.1,58.4,10,57.7z"/>
<path class="st1" d="M21.1,13.1c0.1-1.3,0.5-3.8,2.2-6.3c1.5-2.1,3.2-3.2,3.6-3.5c0.4-0.2,4.8-2.9,9.9-1.2c1.4,0.5,2.5,1.1,3.2,1.6
	c0.5-0.7,1.4-1.6,2.7-2.4c3.5-2,7.1-1.2,7.9-1c0.5,0.1,3.2,0.9,5.5,3.3c1.8,1.9,2.4,4,2.6,4.7c0.4,1.4,1.2,5-1.6,11.3
	c-3.8,8.8-11,15-14.9,18c-0.3,0-0.7,0.1-1,0.1c-0.3-1-0.5-2.4-0.5-4c0-0.8,0.2-1.9,0.5-4.1c0.3-2.1,0.5-2.8,0.5-4.1
	c0-1.3-0.1-2.2-0.4-3c-0.4-1-1.1-1.9-1.2-1.9c-0.2,0.1,0.4,1.2,0.4,3c0,1.2-0.3,1.6-0.6,3.1c-0.1,0.5-0.5,2.2-0.5,4.1
	c0,1.7,0.2,3.2,0.7,6c0.3,1.6,0.4,1.9,0.2,2c-0.7,0.4-4.1-4.5-9.4-10.9C23.7,19.2,20.8,17.2,21.1,13.1z"/>
<path class="st2" d="M53,73.5c-0.4,1.2-1.3,3.6-3.6,5.7c-1.9,1.7-3.8,2.4-4.3,2.6c-0.4,0.1-5.3,1.7-10-1c-1.3-0.8-2.2-1.7-2.8-2.3
	c-0.7,0.5-1.7,1.2-3.2,1.7c-3.8,1.2-7.2-0.4-8-0.8c-0.5-0.2-2.9-1.6-4.6-4.5c-1.3-2.3-1.4-4.4-1.5-5.2c-0.1-1.4,0-5.1,4.1-10.6
	c5.7-7.8,14.1-12.2,18.5-14.2c0.3,0,0.7,0.1,1,0.1c0,1,0,2.4-0.4,4c-0.2,0.8-0.6,1.8-1.4,3.9c-0.8,2-1.1,2.6-1.4,3.9
	c-0.3,1.3-0.4,2.1-0.3,3c0.1,1.1,0.6,2.1,0.8,2.1c0.2,0-0.1-1.3,0.3-3c0.3-1.1,0.6-1.5,1.3-2.9c0.2-0.4,0.9-2,1.4-3.9
	c0.4-1.7,0.5-3.2,0.6-6c0.1-1.6,0-1.9,0.2-2c0.8-0.3,3,5.3,6.8,12.7C51.8,67,54.2,69.6,53,73.5z"/>
<path class="st3" d="M67.6,23.1c1.3,0.1,3.8,0.7,6.2,2.6c2,1.6,3,3.3,3.3,3.8c0.2,0.4,2.6,4.9,0.7,10c-0.5,1.4-1.3,2.5-1.8,3.1
	c0.6,0.6,1.5,1.5,2.2,2.9c1.8,3.6,0.8,7.1,0.6,8c-0.2,0.5-1,3.1-3.6,5.3c-2,1.7-4.1,2.2-4.8,2.3c-1.4,0.3-5,0.9-11.2-2.2
	C50.5,54.5,44.7,47,42,43c0-0.3,0-0.7-0.1-1c1-0.2,2.4-0.4,4-0.3c0.8,0.1,1.9,0.3,4.1,0.7c2.1,0.4,2.7,0.6,4.1,0.7
	c1.3,0.1,2.2,0.1,3-0.2c1.1-0.3,2-0.9,1.9-1.1c-0.1-0.2-1.3,0.3-3,0.2c-1.2-0.1-1.6-0.4-3.1-0.8c-0.4-0.1-2.2-0.6-4.1-0.7
	c-1.7-0.1-3.2,0.1-6,0.4c-1.6,0.2-1.9,0.3-2,0.1c-0.4-0.7,4.7-3.9,11.4-8.8C61.4,25.4,63.6,22.6,67.6,23.1z"/>
<path class="st0" d="M42,45.7c0,0,5,9,7,11c0,0,4,8,7,11c0,0,2,3,15,13c0,0,4-1,3-5c0,0-19.5-11.5-23.5-20.5
	C50.5,55.2,42.5,46.2,42,45.7z"/>
<path class="st4" d="M127,47.7v13h4c0,0,7-4,3-11C134,49.7,133,46.7,127,47.7z"/>
<polygon class="st5" points="160,65.7 163,54.7 167,65.7 "/>
</svg>
